<svg width="192" height="192" viewBox="0 0 192 192" fill="none" xmlns="http://www.w3.org/2000/svg">
<g clip-path="url(#clip0_2_45)">
<rect width="192" height="192" rx="26.25" fill="#151515"/>
<path d="M152.625 73.3125L96.75 42.9375V155.25H140.25L152.625 73.3125Z" fill="#CACACA"/>
<path d="M121.688 98.4375L129.375 101.25L127.875 114" stroke="#353535" stroke-opacity="0.4" stroke-width="1.5"/>
<path d="M134.812 102.938L140.25 104.438L138.188 117.188" stroke="#353535" stroke-opacity="0.4" stroke-width="1.5"/>
<path d="M51.375 87.5625L96.9375 43.3125V155.25L61.125 149.438L51.375 87.5625Z" fill="#797979"/>
<path d="M99.2395 48.7361C99.7957 48.2386 100.125 47.5445 100.147 46.7987C100.17 46.0534 99.885 45.3174 99.3611 44.7605C98.8372 44.2035 98.12 43.8736 97.3746 43.851C96.6289 43.828 95.916 44.1142 95.3855 44.6389C95.3855 44.6389 95.3855 44.6389 95.3855 44.6389C94.6651 45.3509 93.9447 46.0628 93.2243 46.7748C80.2577 59.5901 67.291 72.4053 54.3243 85.2206C53.6039 85.9326 52.8836 86.6445 52.1632 87.3565C51.9217 87.5954 51.7843 87.9247 51.7779 88.2684C51.7718 88.6123 51.8971 88.9425 52.1298 89.1899C52.3625 89.4372 52.6844 89.5825 53.0281 89.5974C53.3715 89.612 53.7086 89.495 53.9618 89.2685C53.9618 89.2685 53.9618 89.2685 53.9618 89.2685C54.7164 88.593 55.471 87.9174 56.2257 87.2419C69.809 75.0821 83.3923 62.9224 96.9757 50.7627C97.7303 50.0872 98.4849 49.4116 99.2395 48.7361Z" fill="#D9D9D9" fill-opacity="0.56"/>
<path d="M151.861 74.6304C151.908 74.2888 151.817 73.9409 151.61 73.6635C151.402 73.3861 151.095 73.2019 150.754 73.1512C150.413 73.1005 150.065 73.1874 149.786 73.3924C149.506 73.5975 149.318 73.9039 149.264 74.2446C149.264 74.2446 149.264 74.2446 149.264 74.2446C148.948 76.2441 148.632 78.2437 148.316 80.2432C144.449 104.707 140.582 129.171 136.715 153.635L138.816 151.882C127.155 151.401 115.494 150.92 103.833 150.439C101.811 150.356 99.788 150.272 97.7654 150.189C97.1194 150.162 96.4917 150.394 96.0202 150.836C95.5487 151.278 95.2721 151.895 95.2512 152.547C95.2304 153.199 95.4671 153.833 95.9094 154.304C96.3517 154.776 96.9633 155.047 97.6096 155.061C97.6096 155.061 97.6096 155.061 97.6096 155.061C99.6335 155.107 101.657 155.153 103.681 155.199C115.349 155.464 127.017 155.729 138.684 155.993L140.535 156.035L140.785 154.24C144.198 129.708 147.611 105.177 151.024 80.6455C151.303 78.6405 151.582 76.6354 151.861 74.6304Z" fill="black" fill-opacity="0.2"/>
<path d="M61.8512 147.198C61.5155 147.167 61.1764 147.273 60.9093 147.488C60.6422 147.702 60.4689 148.007 60.4269 148.342C60.3849 148.676 60.4773 149.014 60.683 149.288C60.8887 149.562 61.1909 149.749 61.5238 149.802C61.5238 149.802 61.5238 149.802 61.5238 149.802C62.0934 149.893 62.6629 149.983 63.2324 150.074C73.4841 151.702 83.7358 153.331 93.9874 154.96C94.557 155.05 95.1265 155.14 95.696 155.231C96.3348 155.333 96.9796 155.174 97.4902 154.777C98.0008 154.381 98.3352 153.779 98.4185 153.116C98.5017 152.454 98.3266 151.788 97.93 151.278C97.5335 150.767 96.948 150.453 96.304 150.394C96.304 150.394 96.304 150.394 96.304 150.394C95.7297 150.341 95.1555 150.287 94.5813 150.234C84.2455 149.275 73.9096 148.316 63.5738 147.358C62.9996 147.304 62.4254 147.251 61.8512 147.198Z" fill="#2C2727" fill-opacity="0.56"/>
<path d="M99.158 44.1847C98.5031 43.8271 97.7391 43.7493 97.029 43.9784C96.3191 44.2068 95.7213 44.7234 95.3722 45.4045C95.0231 46.0856 94.9526 46.8725 95.1815 47.5822C95.4101 48.2924 95.9193 48.8673 96.592 49.1903C97.469 49.6118 98.346 50.0333 99.2231 50.4548C115.01 58.0419 130.796 65.6289 146.583 73.216C147.46 73.6375 148.337 74.059 149.214 74.4805C149.52 74.6274 149.876 74.6459 150.202 74.5364C150.527 74.4267 150.796 74.198 150.951 73.8961C151.106 73.5942 151.134 73.2425 151.033 72.9139C150.932 72.5855 150.709 72.3072 150.411 72.1445C150.411 72.1445 150.411 72.1445 150.411 72.1445C149.557 71.6785 148.703 71.2125 147.849 70.7465C132.473 62.3586 117.097 53.9706 101.721 45.5827C100.866 45.1167 100.012 44.6507 99.158 44.1847Z" fill="white" fill-opacity="0.56"/>
<path d="M97.3125 44.625V152.812" stroke="white" stroke-opacity="0.56" stroke-width="2.625" stroke-linecap="round"/>
<path d="M106.688 67.5L115.312 71.0625L114 87.5625" stroke="#353535" stroke-opacity="0.4" stroke-width="1.5"/>
<path d="M122.062 72.9375L130.875 77.0625L129.188 91.3125" stroke="#353535" stroke-opacity="0.4" stroke-width="1.5"/>
<path d="M136.875 79.875L143.062 82.125L141 95.625M118.875 119.062H124.875L129.75 123L127.875 150.188" stroke="#353535" stroke-opacity="0.4" stroke-width="1.5"/>
<path d="M105 94.5L113.812 97.3125V111.562" stroke="#353535" stroke-opacity="0.4" stroke-width="1.5"/>
<path d="M107.062 110.625L113.812 111.75" stroke="white" stroke-opacity="0.7"/>
<path d="M104.812 84.375L113.625 87.375M122.25 89.25L129.562 90.9375M135.188 93.375L141 95.25M120.75 111.938L127.875 113.625M133.312 115.312L138.375 117.375M116.438 149.062L127.875 150.188" stroke="white" stroke-opacity="0.7"/>
</g>
<defs>
<clipPath id="clip0_2_45">
<rect width="192" height="192" fill="white"/>
</clipPath>
</defs>
</svg>
