<svg width="512" height="512" viewBox="0 0 512 512" fill="none" xmlns="http://www.w3.org/2000/svg">
<g clip-path="url(#clip0_2_19)">
<rect width="512" height="512" rx="70" fill="#151515"/>
<path d="M407 195.5L258 114.5V414H374L407 195.5Z" fill="#CACACA"/>
<path d="M324.5 262.5L345 270L341 304" stroke="#353535" stroke-opacity="0.4" stroke-width="4"/>
<path d="M359.5 274.5L374 278.5L368.5 312.5" stroke="#353535" stroke-opacity="0.4" stroke-width="4"/>
<path d="M137 233.5L258.5 115.5V414L163 398.5L137 233.5Z" fill="#767676"/>
<path d="M264.639 129.963C266.122 128.636 267 126.785 267.06 124.797C267.121 122.809 266.36 120.846 264.963 119.361C263.566 117.876 261.653 116.996 259.666 116.936C257.677 116.875 255.776 117.638 254.361 119.037C254.361 119.037 254.361 119.037 254.361 119.037C252.44 120.936 250.519 122.834 248.598 124.733C214.02 158.907 179.443 193.081 144.865 227.255C142.944 229.154 141.023 231.052 139.102 232.951C138.458 233.588 138.091 234.466 138.074 235.382C138.058 236.3 138.392 237.18 139.013 237.84C139.633 238.499 140.492 238.887 141.408 238.926C142.324 238.965 143.223 238.653 143.898 238.049C143.898 238.049 143.898 238.049 143.898 238.049C145.91 236.248 147.923 234.446 149.935 232.645C186.157 200.219 222.38 167.793 258.602 135.367C260.614 133.566 262.626 131.764 264.639 129.963Z" fill="#D9D9D9" fill-opacity="0.56"/>
<path d="M404.962 199.014C405.089 198.103 404.846 197.176 404.292 196.436C403.739 195.696 402.919 195.205 402.01 195.07C401.1 194.935 400.173 195.166 399.428 195.713C398.684 196.26 398.182 197.077 398.038 197.986C398.038 197.986 398.038 197.986 398.038 197.986C397.195 203.318 396.352 208.65 395.51 213.982C385.198 279.219 374.886 344.456 364.574 409.694L370.175 405.018C339.08 403.735 307.984 402.453 276.889 401.171C271.495 400.948 266.101 400.726 260.708 400.503C258.985 400.432 257.311 401.05 256.054 402.229C254.797 403.408 254.059 405.053 254.003 406.792C253.948 408.532 254.579 410.22 255.758 411.477C256.938 412.735 258.569 413.458 260.292 413.497C260.292 413.497 260.292 413.497 260.292 413.497C265.689 413.619 271.086 413.742 276.483 413.864C307.597 414.57 338.711 415.276 369.825 415.982L374.759 416.094L375.426 411.306C384.527 345.889 393.629 280.472 402.73 215.055C403.474 209.708 404.218 204.361 404.962 199.014Z" fill="black" fill-opacity="0.13"/>
<path d="M164.936 392.527C164.041 392.445 163.137 392.729 162.425 393.3C161.712 393.873 161.251 394.686 161.138 395.578C161.026 396.469 161.273 397.371 161.821 398.102C162.37 398.832 163.176 399.331 164.064 399.473C164.064 399.473 164.064 399.473 164.064 399.473C165.582 399.714 167.101 399.955 168.62 400.197C195.958 404.539 223.295 408.882 250.633 413.225C252.152 413.467 253.671 413.708 255.189 413.949C256.893 414.221 258.612 413.797 259.974 412.738C261.335 411.682 262.227 410.077 262.449 408.311C262.671 406.544 262.204 404.768 261.147 403.408C260.089 402.046 258.528 401.209 256.811 401.051C256.811 401.051 256.811 401.051 256.811 401.051C255.279 400.909 253.748 400.767 252.217 400.625C224.655 398.068 197.092 395.511 169.53 392.953C167.999 392.811 166.468 392.669 164.936 392.527Z" fill="#2C2727" fill-opacity="0.56"/>
<path d="M264.421 117.826C262.675 116.872 260.638 116.665 258.744 117.276C256.851 117.885 255.257 119.262 254.326 121.079C253.395 122.895 253.207 124.993 253.817 126.886C254.427 128.78 255.785 130.313 257.579 131.174C257.579 131.174 257.579 131.174 257.579 131.174C259.917 132.298 262.256 133.422 264.595 134.546C306.692 154.778 348.79 175.01 390.887 195.243C393.226 196.367 395.565 197.491 397.903 198.615C398.719 199.006 399.669 199.056 400.537 198.764C401.406 198.471 402.123 197.861 402.536 197.056C402.948 196.251 403.025 195.313 402.755 194.437C402.485 193.561 401.891 192.819 401.097 192.385C401.097 192.385 401.097 192.385 401.097 192.385C398.819 191.143 396.541 189.9 394.263 188.657C353.26 166.29 312.258 143.922 271.255 121.554C268.977 120.311 266.699 119.069 264.421 117.826Z" fill="white" fill-opacity="0.56"/>
<path d="M259.5 119V407.5" stroke="white" stroke-opacity="0.56" stroke-width="7" stroke-linecap="round"/>
<path d="M284.5 180L307.5 189.5L304 233.5" stroke="#353535" stroke-opacity="0.4" stroke-width="4"/>
<path d="M325.5 194.5L349 205.5L344.5 243.5" stroke="#353535" stroke-opacity="0.4" stroke-width="4"/>
<path d="M365 213L381.5 219L376 255M317 317.5H333L346 328L341 400.5" stroke="#353535" stroke-opacity="0.4" stroke-width="4"/>
<path d="M280 252L303.5 259.5V297.5" stroke="#353535" stroke-opacity="0.4" stroke-width="4"/>
<path d="M285.5 295L303.5 298" stroke="white" stroke-opacity="0.7" stroke-width="2"/>
<path d="M279.5 225L303 233M326 238L345.5 242.5M360.5 249L376 254M322 298.5L341 303M355.5 307.5L369 313M310.5 397.5L341 400.5" stroke="white" stroke-opacity="0.7" stroke-width="2"/>
</g>
<defs>
<clipPath id="clip0_2_19">
<rect width="512" height="512" fill="white"/>
</clipPath>
</defs>
</svg>
